<svg width="33" height="36" viewBox="0 0 33 36" fill="none" xmlns="http://www.w3.org/2000/svg">
<path fill-rule="evenodd" clip-rule="evenodd" d="M17.243 35.7847C16.7079 36.0705 16.0362 36.0723 15.501 35.7865C0.812765 27.9427 -0.0591713 12.6028 0.00271984 8.27225C0.00778781 7.92678 0.112063 7.59004 0.303124 7.30216C0.494184 7.01428 0.763974 6.78739 1.08035 6.64852L15.632 0.15724C15.865 0.0538722 16.117 0.000314853 16.3718 1.38405e-06C16.6267 -0.000312085 16.8788 0.0526254 17.112 0.15542L31.7656 6.6467C32.0867 6.78549 32.3604 7.01492 32.5531 7.30687C32.7457 7.59883 32.8491 7.94065 32.8505 8.29046C32.8632 12.6429 31.8275 27.95 17.243 35.7847ZM9.1016 20.9338H13.6524V25.4846H19.1134V20.9338H23.6642V15.4728H19.1134V10.922H13.6524V15.4728H9.1016V20.9338Z" fill="#3CE2AD"/>
</svg>
