<svg width="33" height="36" viewBox="0 0 33 36" fill="none" xmlns="http://www.w3.org/2000/svg">
<path d="M15.501 35.7866C16.0362 36.0724 16.7079 36.0705 17.2431 35.7847C31.8275 27.95 32.8633 12.6429 32.8506 8.29048C32.8492 7.94066 32.7458 7.59885 32.5531 7.30689C32.3604 7.01493 32.0868 6.78551 31.7657 6.64672L17.112 0.15542C16.8788 0.0526255 16.6267 -0.000312086 16.3718 1.38405e-06C16.117 0.000314854 15.865 0.0538723 15.6321 0.157241L1.08036 6.64854C0.763976 6.78741 0.494185 7.01429 0.303124 7.30218C0.112064 7.59006 0.00778782 7.9268 0.00271985 8.27227C-0.0591714 12.6028 0.812767 27.9428 15.501 35.7866ZM10.3786 14.9238L14.5526 19.0978L22.3673 11.2831L24.9412 13.857L14.5526 24.2457L7.80465 17.4977L10.3786 14.9238Z" fill="#3CE2AD"/>
</svg>
